<?xml version="1.0" standalone="no"?><!-- Generator: Gravit.io --><svg xmlns="http://www.w3.org/2000/svg" xmlns:xlink="http://www.w3.org/1999/xlink" style="isolation:isolate" viewBox="412.227 374.045 540.864 103" width="540.864" height="103"><g id="Group"/><g id="http"><g id="Group"><g id="Group"><g id="Group"><g id="Group"><g id="Group"><g id="Group"><path d=" M 840.771 448.829 L 840.771 397.781 L 832.059 397.781 L 832.059 418.877 L 808.083 418.877 L 808.083 397.781 L 799.443 397.781 L 799.443 448.829 L 808.083 448.829 L 808.083 427.013 L 832.059 427.013 L 832.059 448.829 L 840.771 448.829 Z  M 875.115 444.941 C 875.115 446.381 875.259 448.037 875.403 448.829 L 883.395 448.829 C 883.251 447.533 883.035 445.301 883.035 442.421 L 883.035 413.765 L 874.683 413.765 L 874.683 434.501 C 874.683 439.109 872.163 442.349 867.339 442.349 C 862.299 442.349 860.283 438.677 860.283 434.357 L 860.283 413.765 L 851.931 413.765 L 851.931 435.869 C 851.931 443.645 856.827 449.837 865.179 449.837 C 869.283 449.837 873.387 448.109 875.115 444.941 Z  M 902.187 428.597 C 902.187 423.989 904.707 420.317 909.459 420.317 C 914.715 420.317 916.659 423.773 916.659 428.093 L 916.659 448.829 L 925.011 448.829 L 925.011 426.653 C 925.011 418.949 920.907 412.757 912.339 412.757 C 908.451 412.757 904.275 414.413 901.971 418.445 L 901.971 413.765 L 893.835 413.765 L 893.835 448.829 L 902.187 448.829 L 902.187 428.597 Z  M 945.747 403.037 L 938.187 403.037 L 938.187 408.293 C 938.187 411.389 936.531 413.765 932.787 413.765 L 930.987 413.765 L 930.987 421.181 L 937.467 421.181 L 937.467 438.821 C 937.467 445.373 941.499 449.261 947.979 449.261 C 951.003 449.261 952.587 448.685 953.091 448.469 L 953.091 441.557 C 952.731 441.629 951.363 441.845 950.211 441.845 C 947.115 441.845 945.747 440.549 945.747 437.453 L 945.747 421.181 L 953.019 421.181 L 953.019 413.765 L 945.747 413.765 L 945.747 403.037 Z  M 534.987 440.909 L 534.987 405.701 L 544.131 405.701 C 552.987 405.701 560.259 411.461 560.259 423.413 C 560.259 435.221 552.915 440.909 544.059 440.909 L 534.987 440.909 Z  M 544.347 448.829 C 558.171 448.829 569.259 439.757 569.259 423.413 C 569.259 406.997 558.315 397.781 544.419 397.781 L 526.347 397.781 L 526.347 448.829 L 544.347 448.829 Z  M 593.019 442.421 C 587.907 442.421 583.227 438.533 583.227 431.261 C 583.227 423.989 587.907 420.245 593.019 420.245 C 598.203 420.245 602.811 423.989 602.811 431.261 C 602.811 438.605 598.203 442.421 593.019 442.421 Z  M 593.019 412.685 C 582.579 412.685 574.875 420.533 574.875 431.261 C 574.875 442.061 582.579 449.909 593.019 449.909 C 603.531 449.909 611.235 442.061 611.235 431.261 C 611.235 420.533 603.531 412.685 593.019 412.685 Z  M 627.579 448.829 L 627.579 428.021 C 627.579 423.557 630.387 420.245 634.851 420.245 C 639.603 420.245 641.619 423.413 641.619 427.445 L 641.619 448.829 L 649.827 448.829 L 649.827 428.021 C 649.827 423.701 652.707 420.245 657.099 420.245 C 661.779 420.245 663.867 423.341 663.867 427.445 L 663.867 448.829 L 671.931 448.829 L 671.931 426.077 C 671.931 416.789 665.883 412.757 659.547 412.757 C 655.011 412.757 650.907 414.341 648.171 418.949 C 646.299 414.845 642.267 412.757 637.659 412.757 C 633.699 412.757 629.307 414.629 627.291 418.229 L 627.291 413.765 L 619.299 413.765 L 619.299 448.829 L 627.579 448.829 Z  M 679.995 439.325 C 679.995 444.869 684.531 449.909 691.875 449.909 C 697.563 449.909 701.019 447.029 702.675 444.365 C 702.675 447.173 702.963 448.613 703.035 448.829 L 710.811 448.829 C 710.739 448.469 710.379 446.381 710.379 443.213 L 710.379 425.789 C 710.379 418.805 706.275 412.685 695.475 412.685 C 686.835 412.685 681.363 418.085 680.715 424.133 L 688.347 425.861 C 688.707 422.333 691.155 419.525 695.547 419.525 C 700.155 419.525 702.171 421.901 702.171 424.853 C 702.171 426.077 701.595 427.085 699.579 427.373 L 690.579 428.741 C 684.603 429.605 679.995 433.061 679.995 439.325 Z  M 693.459 443.357 C 690.147 443.357 688.347 441.197 688.347 438.821 C 688.347 435.941 690.435 434.501 693.027 434.069 L 702.171 432.701 L 702.171 434.285 C 702.171 441.125 698.139 443.357 693.459 443.357 Z  M 728.739 448.829 L 728.739 413.765 L 720.459 413.765 L 720.459 448.829 L 728.739 448.829 Z  M 719.163 401.453 C 719.163 404.477 721.611 406.853 724.563 406.853 C 727.587 406.853 730.035 404.477 730.035 401.453 C 730.035 398.429 727.587 395.981 724.563 395.981 C 721.611 395.981 719.163 398.429 719.163 401.453 Z  M 747.891 428.597 C 747.891 423.989 750.411 420.317 755.163 420.317 C 760.419 420.317 762.363 423.773 762.363 428.093 L 762.363 448.829 L 770.715 448.829 L 770.715 426.653 C 770.715 418.949 766.611 412.757 758.043 412.757 C 754.155 412.757 749.979 414.413 747.675 418.445 L 747.675 413.765 L 739.539 413.765 L 739.539 448.829 L 747.891 448.829 L 747.891 428.597 Z " fill-rule="evenodd" fill="rgb(0,123,255)"/><path d=" M 463.727 384.775 C 467.47 384.775 471.08 385.261 474.557 386.228 C 478.036 387.201 481.286 388.563 484.313 390.331 C 487.329 392.089 490.105 394.23 492.573 396.7 C 495.054 399.18 497.179 401.936 498.942 404.96 C 500.723 408.022 502.102 411.301 503.045 414.716 C 504.015 418.195 504.498 421.803 504.498 425.545 C 504.498 429.288 504.012 432.898 503.045 436.375 C 502.102 439.79 500.723 443.069 498.942 446.131 C 497.183 449.147 495.043 451.924 492.573 454.391 C 490.092 456.872 487.337 458.998 484.313 460.76 C 481.251 462.541 477.971 463.92 474.557 464.863 C 471.03 465.839 467.386 466.328 463.727 466.316 C 459.988 466.316 456.374 465.83 452.898 464.863 C 449.483 463.92 446.204 462.541 443.142 460.76 C 440.125 459.002 437.349 456.861 434.882 454.391 C 432.412 451.924 430.271 449.147 428.513 446.131 C 426.735 443.074 425.358 439.802 424.413 436.395 C 423.433 432.862 422.943 429.211 422.956 425.545 C 422.956 421.803 423.443 418.192 424.413 414.716 C 425.354 411.301 426.732 408.022 428.513 404.96 C 430.271 401.944 432.412 399.167 434.882 396.7 C 437.349 394.228 440.126 392.088 443.144 390.331 C 446.2 388.553 449.471 387.174 452.878 386.228 C 456.411 385.25 460.061 384.76 463.727 384.775 Z  M 428.055 425.545 C 428.055 429.076 428.544 432.475 429.526 435.74 L 443.98 435.74 C 443.558 432.358 443.344 428.953 443.342 425.545 C 443.34 422.138 443.553 418.735 443.98 415.354 L 429.526 415.354 C 428.539 418.661 428.043 422.095 428.055 425.545 Z  M 452.063 391.822 C 449.834 392.594 447.696 393.587 445.654 394.806 C 443.611 396.027 441.711 397.421 439.96 398.989 C 438.202 400.56 436.601 402.301 435.182 404.184 C 433.753 406.075 432.526 408.11 431.52 410.256 L 444.778 410.256 C 445.104 408.639 445.476 407.032 445.894 405.438 C 446.319 403.813 446.831 402.212 447.428 400.642 C 448.026 399.063 448.706 397.529 449.476 396.045 C 450.249 394.557 451.107 393.149 452.063 391.822 L 452.063 391.822 Z  M 431.517 440.832 C 432.524 442.984 433.746 445.01 435.179 446.907 C 438.025 450.686 441.582 453.872 445.651 456.285 C 447.696 457.504 449.831 458.503 452.06 459.269 C 451.096 457.928 450.231 456.517 449.473 455.049 C 448.699 453.559 448.014 452.023 447.422 450.451 C 446.828 448.88 446.316 447.278 445.888 445.653 C 445.468 444.06 445.096 442.454 444.772 440.838 L 431.517 440.838 L 431.517 440.835 L 431.517 440.832 Z  M 478.339 435.74 C 478.554 434.04 478.719 432.346 478.84 430.661 C 479.082 427.255 479.082 423.836 478.84 420.43 C 478.719 418.742 478.554 417.054 478.339 415.354 L 449.116 415.354 C 448.904 417.041 448.738 418.734 448.618 420.43 C 448.375 423.836 448.375 427.255 448.618 430.661 C 448.738 432.349 448.904 434.037 449.116 435.74 L 478.339 435.74 Z  M 463.727 389.87 C 462.435 389.868 461.169 390.242 460.085 390.946 C 458.958 391.664 457.916 392.605 456.961 393.773 C 456.005 394.943 455.15 396.262 454.391 397.735 C 452.945 400.569 451.778 403.537 450.907 406.596 C 450.559 407.806 450.254 409.027 449.991 410.259 L 477.466 410.259 C 476.881 407.519 476.082 404.83 475.077 402.216 C 474.487 400.688 473.816 399.192 473.066 397.735 C 472.353 396.328 471.493 394.999 470.5 393.773 C 469.615 392.669 468.56 391.715 467.372 390.946 C 466.287 390.242 465.021 389.869 463.727 389.87 L 463.727 389.87 Z  M 463.727 461.221 C 465.029 461.221 466.245 460.863 467.369 460.145 C 468.5 459.427 469.541 458.485 470.497 457.318 C 471.452 456.148 472.308 454.829 473.066 453.355 C 474.512 450.522 475.679 447.554 476.551 444.495 C 476.898 443.285 477.202 442.063 477.463 440.832 L 449.994 440.832 C 450.578 443.571 451.376 446.26 452.38 448.875 C 452.964 450.388 453.636 451.879 454.391 453.355 C 455.15 454.829 456.005 456.148 456.961 457.318 C 457.916 458.485 458.958 459.43 460.085 460.145 C 461.215 460.86 462.428 461.221 463.727 461.221 L 463.727 461.221 Z  M 495.941 410.256 C 494.935 408.11 493.707 406.075 492.278 404.184 C 489.433 400.405 485.875 397.219 481.807 394.806 C 479.779 393.592 477.631 392.592 475.398 391.822 C 476.35 393.149 477.215 394.554 477.984 396.042 C 478.757 397.529 479.438 399.06 480.036 400.639 C 480.631 402.219 481.143 403.815 481.569 405.438 C 481.993 407.057 482.365 408.662 482.682 410.253 L 495.941 410.253 L 495.941 410.256 Z  M 475.392 459.269 C 477.626 458.499 479.773 457.499 481.801 456.285 C 483.829 455.076 485.736 453.675 487.497 452.102 C 489.256 450.53 490.856 448.79 492.275 446.907 C 493.704 445.016 494.932 442.981 495.938 440.835 L 482.676 440.835 C 482.351 442.452 481.979 444.058 481.561 445.653 C 481.136 447.278 480.625 448.878 480.03 450.449 C 479.437 452.02 478.753 453.555 477.981 455.046 C 477.209 456.534 476.35 457.942 475.392 459.269 L 475.392 459.269 Z  M 499.402 425.545 C 499.402 422.015 498.91 418.616 497.932 415.354 L 483.478 415.354 C 483.899 418.735 484.111 422.139 484.113 425.545 C 484.115 428.953 483.903 432.358 483.478 435.74 L 497.932 435.74 C 498.91 432.475 499.402 429.076 499.402 425.545 Z " fill-rule="evenodd" fill="rgb(0,123,255)" fill-opacity="0.15"/><rect x="412.227" y="374.045" width="103" height="103" transform="matrix(1,0,0,1,0,0)" fill="none"/><path d=" M 442.591 422.727 L 436.955 422.727 L 436.955 417.091 L 432.727 417.091 L 432.727 434 L 436.955 434 L 436.955 426.954 L 442.591 426.954 L 442.591 434 L 446.818 434 L 446.818 417.091 L 442.591 417.091 L 442.591 422.727 Z " fill="rgb(0,123,255)"/><path d=" M 449.636 421.318 L 453.864 421.318 L 453.864 434 L 458.091 434 L 458.091 421.318 L 462.318 421.318 L 462.318 417.091 L 449.636 417.091 L 449.636 421.318 Z " fill="rgb(0,123,255)"/><path d=" M 465.136 421.318 L 469.364 421.318 L 469.364 434 L 473.591 434 L 473.591 421.318 L 477.818 421.318 L 477.818 417.091 L 465.136 417.091 L 465.136 421.318 Z " fill="rgb(0,123,255)"/><path d=" M 490.5 417.091 L 480.636 417.091 L 480.636 434 L 484.864 434 L 484.864 428.364 L 490.5 428.364 C 492.895 428.364 494.727 426.532 494.727 424.136 L 494.727 421.318 C 494.727 418.923 492.896 417.091 490.5 417.091 Z  M 490.5 424.136 L 484.864 424.136 L 484.864 421.318 L 490.5 421.318 L 490.5 424.136 L 490.5 424.136 Z " fill="rgb(0,123,255)"/></g></g></g></g></g></g></g></svg>